PathFileType	4	(X/Y/Z)	C:/Users/opensim2020/Desktop/walking_exp_matlab/subject06_walking17_straight_02.trc	
DataRate	CameraRate	NumFrames	NumMarkers	Units	OrigDataRate	OrigDataStartFrame	OrigNumFrames	
100.00	100.00	4	45	mm	100.00	2157	334	
Frame#	Time	LFHD			RFHD			LBHD			RBHD			C7			T10			CLAV			STRN			RBAK			LSHO			LUPA			LELB			LFRM			LWRA			LWRB			LFIN			RSHO			RUPA			RELB			RFRM			RWRA			RWRB			RFIN			LASI			RASI			LPSI			RPSI			LTHI			LKNE			LTIB			LANK			LHEE			LTOE			RTHI			RKNE			RTIB			RANK			RHEE			RTOE			*39			*40			*41			*42			*43			*44			
		X1	Y1	Z1	X2	Y2	Z2	X3	Y3	Z3	X4	Y4	Z4	X5	Y5	Z5	X6	Y6	Z6	X7	Y7	Z7	X8	Y8	Z8	X9	Y9	Z9	X10	Y10	Z10	X11	Y11	Z11	X12	Y12	Z12	X13	Y13	Z13	X14	Y14	Z14	X15	Y15	Z15	X16	Y16	Z16	X17	Y17	Z17	X18	Y18	Z18	X19	Y19	Z19	X20	Y20	Z20	X21	Y21	Z21	X22	Y22	Z22	X23	Y23	Z23	X24	Y24	Z24	X25	Y25	Z25	X26	Y26	Z26	X27	Y27	Z27	X28	Y28	Z28	X29	Y29	Z29	X30	Y30	Z30	X31	Y31	Z31	X32	Y32	Z32	X33	Y33	Z33	X34	Y34	Z34	X35	Y35	Z35	X36	Y36	Z36	X37	Y37	Z37	X38	Y38	Z38	X39	Y39	Z39	X40	Y40	Z40	X41	Y41	Z41	X42	Y42	Z42	X43	Y43	Z43	X44	Y44	Z44	X45	Y45	Z45	

1	0.000	1548.34656	1235.70227	1672.94812	1417.31445	1244.48840	1660.90674	1557.97339	1367.58923	1616.34021	1429.52795	1374.75671	1609.81042	1497.30945	1370.45459	1460.30151	1479.15564	1411.18774	1133.27075	1492.83826	1261.78101	1382.27087	1494.56763	1226.16418	1205.42908	1412.13635	1445.49744	1293.95911	1655.92102	1310.93848	1411.05542	1732.44751	1293.78979	1210.23059	1748.70544	1280.46179	1099.26672	1767.52625	1226.36401	958.84387	1715.06812	1157.82117	853.75403	1766.66089	1205.32629	841.47620	1760.22363	1148.70020	770.78583	1332.81396	1303.86658	1419.19727	1242.24878	1344.79614	1222.75354	1227.67102	1339.53979	1101.05298	1208.08850	1325.30261	981.70355	1236.49695	1267.73230	841.04724	1195.67029	1321.59875	843.90894	1193.04761	1284.98853	767.23492	1583.21912	1233.57593	971.54706	1362.63000	1235.53748	979.07330	1553.51990	1393.29419	999.96460	1385.16858	1386.85071	998.86279	1636.09155	1304.37061	659.61926	1614.86353	1310.21863	495.13974	1601.16980	1347.54004	240.52591	1551.55493	1346.39490	69.48549	1505.38525	1384.86975	55.14343	1548.94324	1199.49475	41.04228	1305.79150	1224.27502	646.35327	1329.31653	1186.45520	526.15857	1327.08801	1315.24512	299.38992	1363.51489	1404.25952	134.30313	1412.50928	1446.14111	122.00260	1349.91016	1279.83984	45.62310	1495.72546	1340.36829	1709.26050															 
2	0.010	1549.19873	1229.66687	1672.79395	1418.09924	1238.37146	1660.74939	1558.81543	1361.56506	1616.13367	1430.32068	1368.75281	1609.61462	1498.22778	1364.44714	1460.28247	1480.17383	1405.70337	1133.22046	1493.81946	1255.87317	1382.09717	1495.67004	1220.60315	1205.11499	1413.28320	1439.82227	1293.92603	1656.81970	1304.88025	1411.04504	1733.49634	1286.66711	1210.41870	1749.97375	1272.25574	1099.65332	1768.58484	1216.05688	959.98761	1716.13025	1145.51111	856.31763	1767.19580	1193.16992	842.93457	1761.10022	1135.08325	773.41010	1333.67163	1297.93835	1418.85083	1243.23096	1339.30566	1222.39197	1228.75867	1334.16870	1100.68335	1209.18262	1320.26953	981.25714	1237.56067	1262.97229	840.51233	1196.79370	1316.82336	843.54419	1194.22083	1280.21130	766.74109	1584.30090	1228.44946	971.18787	1363.64612	1230.18188	978.95258	1554.33789	1388.13818	999.68048	1386.01550	1381.46631	998.78619	1636.40686	1299.85181	659.25629	1615.00513	1306.40784	494.88336	1601.16260	1345.45886	240.36667	1551.04834	1346.05310	69.38571	1505.39331	1385.06433	55.74625	1548.72778	1199.28540	40.84579	1305.77014	1217.60254	646.91150	1329.48621	1179.13525	527.00671	1328.16663	1301.39990	296.15573	1365.39172	1384.17383	128.04898	1414.83411	1424.99866	114.40942	1349.82397	1257.22241	43.26125	1496.53113	1334.35669	1709.02002															 
3	0.020	1549.94849	1223.61853	1672.61084	1418.84924	1232.42004	1660.51111	1559.56067	1355.51929	1615.87048	1431.08777	1362.70886	1609.33679	1499.13867	1358.45398	1460.20215	1481.19128	1400.23987	1133.16138	1494.71509	1250.03027	1381.83862	1496.77905	1215.00684	1204.79907	1414.37830	1434.08081	1293.80859	1657.66907	1298.82153	1411.05286	1734.49939	1279.54639	1210.61658	1751.14429	1264.12744	1099.94690	1769.61353	1205.90002	961.11975	1716.96411	1133.15662	858.91718	1767.70007	1181.14209	844.40643	1761.75085	1121.65369	776.10010	1334.54041	1292.13794	1418.44751	1244.31738	1333.79724	1221.90234	1229.84375	1328.90125	1100.26868	1210.26367	1315.22205	980.82605	1238.52673	1258.18213	839.92639	1197.84094	1311.99390	842.95453	1195.09961	1275.90967	766.30066	1585.36816	1223.21753	970.82007	1364.55603	1224.56458	978.97656	1555.04480	1382.80261	999.33313	1386.79797	1376.11560	998.68634	1636.71851	1295.33398	658.90424	1615.17932	1302.52173	494.53687	1601.27051	1343.35071	240.32269	1550.88464	1345.72217	69.46849	1504.95483	1384.50769	55.50955	1548.61499	1199.15137	40.79281	1305.64783	1211.15051	647.41425	1329.51257	1172.00195	527.71918	1329.04602	1287.25012	292.79276	1367.20959	1363.87744	122.12234	1417.16016	1403.76086	107.30093	1350.21375	1234.25867	41.42279	1497.28381	1328.38464	1708.77783															 
4	0.030	1550.45459	1217.63025	1672.34973	1419.52124	1226.33667	1660.23010	1560.17627	1349.49414	1615.61560	1431.78149	1356.74292	1609.05859	1499.91528	1352.48633	1460.08142	1482.05725	1394.73926	1133.02087	1495.50391	1244.20313	1381.52856	1497.82715	1209.38062	1204.43591	1415.52734	1428.44739	1293.63867	1658.48474	1292.78870	1411.04333	1735.43262	1272.43115	1210.79150	1752.24829	1256.10974	1100.15747	1770.10742	1195.76233	962.07367	1717.72290	1121.50256	861.44824	1767.95886	1169.31128	845.87286	1762.01318	1108.30994	778.62634	1335.27954	1286.35205	1418.02136	1245.34705	1328.34009	1221.41650	1230.95300	1323.56836	1099.78784	1211.33728	1310.19946	980.33496	1239.39673	1253.34302	839.26337	1198.83691	1307.33508	842.54883	1195.78149	1271.25806	765.79742	1586.37036	1217.93774	970.42480	1365.40015	1219.20618	978.77112	1555.82581	1377.47009	999.01385	1387.62476	1370.56860	998.55774	1636.99561	1290.73889	658.51953	1615.39478	1298.54358	494.20288	1601.33850	1341.24268	240.15752	1550.58130	1345.46082	69.42081	1504.77356	1384.36487	55.66952	1548.50806	1198.93286	40.77615	1305.47815	1204.77625	647.79260	1329.38806	1164.92590	528.37103	1329.68738	1273.19409	289.68842	1368.99792	1343.65100	116.59518	1419.21399	1382.70996	100.53720	1350.83167	1211.04517	40.56742	1497.92566	1322.36194	1708.50964															 
